# xmcd
#
# Track frame offsets:
# 150
# 18635
# 33626
# 55251
#
# Disc length: 895 seconds
#
#
# Revision: 0
# Processed by: cddbd v1.5.2PL0 Copyright (c) Steve Scherf et al.
# Submitted via: FreeRIP 2.945 
#
DISCID=30037d04
DTITLE=Jesus Volt - Vaya Con Dildo
DYEAR=2012
DGENRE=Blues Rock
TTITLE0=Give Hate Get Love
TTITLE1=Have A Cookie
TTITLE2=Devil Outta Me
TTITLE3=Kilmistr
EXTD=
EXTT0=
EXTT1=
EXTT2=
EXTT3=
PLAYORDER=
